<svg xmlns="http://www.w3.org/2000/svg" width="27.453" height="24.993" viewBox="0 0 27.453 24.993"><defs><style>.a{fill:#1aa1de;}</style></defs><path class="a" d="M.471,15.845a1.054,1.054,0,0,0-.038,1.73,1.054,1.054,0,0,0,1.73-.038L9,10.772l6.842,6.765a1.054,1.054,0,0,0,1.73.038,1.054,1.054,0,0,0-.038-1.73L10.772,9l6.765-6.842a1.054,1.054,0,0,0,.038-1.73,1.054,1.054,0,0,0-1.73.038L9,7.236,2.162.471A1.054,1.054,0,0,0,.433.433a1.054,1.054,0,0,0,.038,1.73L7.236,9Zm26.982,9.148" transform="translate(0 0)"/></svg>