<svg xmlns="http://www.w3.org/2000/svg" width="34.199" height="32.176" viewBox="0 0 34.199 32.176"><defs><style>.a{fill:#1b2f67;}.b{fill:#5d9fda;}</style></defs><path class="a" d="M127.824-102.4a54.354,54.354,0,0,1-.679,8.553,1.547,1.547,0,0,1-.786,1.109c-2.491,1.357-11.305,5.9-12.327,2.842-.816-2.942-2.458-15.121,11.224-25.044a.752.752,0,0,1,1.176.457A113.026,113.026,0,0,1,127.824-102.4Z" transform="translate(-113.507 121.035)"/><path class="b" d="M139.621-100.014a1.338,1.338,0,0,1-.884-.333,1.343,1.343,0,0,1-.125-1.9l5.6-6.394,5.718,6.382a1.343,1.343,0,0,1-.1,1.9,1.343,1.343,0,0,1-1.9-.1l-3.695-4.124-3.6,4.112A1.34,1.34,0,0,1,139.621-100.014Z" transform="translate(-127.188 117.475)"/><path class="b" d="M149.757-116.17a1.343,1.343,0,0,1-1.343-1.343v-9.521a1.343,1.343,0,0,1,1.343-1.343,1.343,1.343,0,0,1,1.343,1.343v9.521A1.343,1.343,0,0,1,149.757-116.17Z" transform="translate(-132.785 128.377)"/><path class="a" d="M157.912-102.4a54.408,54.408,0,0,0,.679,8.553,1.546,1.546,0,0,0,.787,1.109c2.491,1.357,11.3,5.9,12.327,2.842.815-2.942,2.458-15.121-11.224-25.044a.752.752,0,0,0-1.176.457A113.144,113.144,0,0,0,157.912-102.4Z" transform="translate(-138.031 121.035)"/></svg>