<svg xmlns="http://www.w3.org/2000/svg" width="72" height="71.989" viewBox="0 0 72 71.989"><defs><style>.a{fill:#022b69;}.b{fill:#1aa1de;}.c{fill:none;}.d{fill:#fff;}</style></defs><g transform="translate(-48.681 -43.07)"><path class="a" d="M57.933,88.117,48.887,103.76a1.5,1.5,0,0,0,1.55,2.228l10.316-1.748,3.578,9.832a1.5,1.5,0,0,0,2.694.255L74.71,101.42A31.62,31.62,0,0,1,57.933,88.117Z"/><path class="a" d="M111.427,88.117l9.047,15.643a1.5,1.5,0,0,1-1.551,2.228l-10.315-1.748-3.579,9.832a1.5,1.5,0,0,1-2.693.255L94.651,101.42A31.614,31.614,0,0,0,111.427,88.117Z"/><path class="b" d="M84.68,43.07a28.5,28.5,0,1,0,28.5,28.5A28.53,28.53,0,0,0,84.68,43.07Z"/></g><g transform="translate(-48.681 -43.07)"><rect class="c" width="71.989" height="71.989" transform="translate(48.686 43.07)"/></g><path class="d" d="M85.562,86.275a1.5,1.5,0,0,1-1.764,0c-1.442-1.046-14.116-10.489-14.116-18.3,0-5.6,4.164-8.95,8.186-8.95a7.965,7.965,0,0,1,6.812,4.1,7.969,7.969,0,0,1,6.812-4.1c4.023,0,8.186,3.347,8.186,8.95C99.678,75.786,87,85.229,85.562,86.275Z" transform="translate(-48.681 -43.07)"/></svg>