<svg xmlns="http://www.w3.org/2000/svg" width="28.289" height="55.734" viewBox="0 0 28.289 55.734"><defs><style>.a{fill:#022b69;}.b{fill:#1aa1de;}</style></defs><path class="a" d="M83.353,96.908,73.822,80.8,63.993,96.455c-1.27,2.022-5.237-7.971-3.967-9.994l8.841-14.036-6.289-10.63a13.737,13.737,0,0,1,.988-15.441,13.5,13.5,0,0,1,11.1-5.044c5.227,0,9.384,2.264,11.705,6.373A13.491,13.491,0,0,1,85.938,61.5L78.995,72.558l8.485,14.3C88.7,88.918,84.16,98.273,83.353,96.908ZM74.668,49.957c-2.624,0-3.721,1-4.318,1.76a5.173,5.173,0,0,0-.3,5.73l3.987,6.737L78.613,56.9a4.852,4.852,0,0,0,.231-4.963C78.322,51.015,77.377,49.957,74.668,49.957Z" transform="translate(-59.779 -41.309)"/><path class="b" d="M79.032,73.681l6.906-11.137a13.491,13.491,0,0,0,.435-13.815,12.2,12.2,0,0,0-3.157-3.671,8.449,8.449,0,0,1,.135,1.135c.189,3.678-2.285,7.51-4.239,10.709a5.349,5.349,0,0,1-.5,1.044L74.04,65.232l-3.987-6.737c-.064-.113-.111-.232-.166-.349a2.358,2.358,0,0,1-.366-.431c-1.807-2.75-4.393-8.328-3.923-12.368A13.128,13.128,0,0,0,63.565,47.4a13.737,13.737,0,0,0-.988,15.441l6.289,10.63L60.026,87.508c-1.27,2.023,2.7,12.015,3.967,9.994C63.993,97.5,74.608,80.569,79.032,73.681Z" transform="translate(-59.779 -42.356)"/><path class="b" d="M93.967,100.8l-5.732-9.587-5.229,8.078,6.834,11.553C90.647,112.213,95.183,102.858,93.967,100.8Z" transform="translate(-66.266 -55.249)"/></svg>