<svg xmlns="http://www.w3.org/2000/svg" width="64.407" height="64.404" viewBox="0 0 64.407 64.404"><defs><style>.a{fill:#022b69;}.b{fill:#1aa1de;}</style></defs><path class="a" d="M45.129,106.508h0a2.683,2.683,0,0,1-2.684-2.683l0-59.038A2.685,2.685,0,0,1,45.131,42.1h0a2.682,2.682,0,0,1,2.683,2.683l0,59.038A2.685,2.685,0,0,1,45.129,106.508Z" transform="translate(-42.445 -42.104)"/><path class="b" d="M106.825,49.786C97.97,54.3,92.366,52.778,83.473,48.377c-7.817-3.874-16.24-8.024-30.342-.437a1.342,1.342,0,0,0-.705,1.181V89.373A1.341,1.341,0,0,0,54.4,90.554c12.215-6.58,19.912-3.194,28.059.529,7.449,3.4,14.963,6.795,25.577,1.46a1.326,1.326,0,0,0,.74-1.2V50.98A1.344,1.344,0,0,0,106.825,49.786ZM81.391,82.9a1.339,1.339,0,0,1-1.578,0c-1.29-.939-12.628-9.387-12.628-16.375,0-5.013,3.722-8.007,7.323-8.007A7.126,7.126,0,0,1,80.6,62.184,7.13,7.13,0,0,1,86.7,58.513c3.6,0,7.323,2.995,7.323,8.007C94.019,73.508,82.681,81.956,81.391,82.9Z" transform="translate(-44.372 -42.412)"/></svg>