<svg xmlns="http://www.w3.org/2000/svg" width="31.5" height="31.5" viewBox="0 0 31.5 31.5"><defs><style>.a{fill:#1aa1de;}</style></defs><path class="a" d="M29.25,0a2.162,2.162,0,0,1,1.582.668A2.162,2.162,0,0,1,31.5,2.25v27a2.281,2.281,0,0,1-2.25,2.25h-27a2.162,2.162,0,0,1-1.582-.668A2.162,2.162,0,0,1,0,29.25v-27A2.162,2.162,0,0,1,.668.668,2.162,2.162,0,0,1,2.25,0ZM9.492,27h.07V11.953H4.852V27ZM5.273,9.141a2.581,2.581,0,0,0,1.9.773,2.639,2.639,0,0,0,1.934-.809,2.633,2.633,0,0,0,0-3.8A2.639,2.639,0,0,0,7.172,4.5a2.525,2.525,0,0,0-1.9.809,2.658,2.658,0,0,0-.773,1.9A2.779,2.779,0,0,0,5.273,9.141ZM27,27V18.773a16.878,16.878,0,0,0-.211-2.883,7.106,7.106,0,0,0-.773-2.215,3.6,3.6,0,0,0-1.723-1.547,6.865,6.865,0,0,0-2.848-.527,5.258,5.258,0,0,0-2.777.7,4.209,4.209,0,0,0-1.652,1.688h-.07V11.953h-4.5V27h4.711V19.547a5.993,5.993,0,0,1,.563-2.812A2.239,2.239,0,0,1,19.9,15.68a2.608,2.608,0,0,1,1.406.352,1.662,1.662,0,0,1,.738,1.055,11.36,11.36,0,0,1,.246,1.23,10.774,10.774,0,0,1,.07,1.371V27Zm4.5,2.25"/></svg>