<svg xmlns="http://www.w3.org/2000/svg" width="45.999" height="41.108" viewBox="0 0 45.999 41.108"><defs><style>.a{fill:#1aa1de;}.b{fill:#022b69;}</style></defs><path class="a" d="M75.562,64.548a1.814,1.814,0,0,0-3.234-.89l-2.609,3.35-2.8-4.2A1.844,1.844,0,0,0,65.3,62a1.816,1.816,0,0,0-1.516,1L60.56,69.444l-2.87-9.321a1.821,1.821,0,0,0-1.527-1.269,1.793,1.793,0,0,0-1.778.894L50.71,66.1H39.157a1.816,1.816,0,1,0,0,3.631h12.6a1.813,1.813,0,0,0,1.57-.9l2.119-3.661,2.977,9.671A1.808,1.808,0,0,0,60,76.12l.153,0a1.808,1.808,0,0,0,1.624-1l3.85-7.7,2.466,3.7a1.79,1.79,0,0,0,1.4.805,1.685,1.685,0,0,0,1.54-.7l4.152-5.337A1.8,1.8,0,0,0,75.562,64.548Z" transform="translate(-37.341 -51.014)"/><path class="b" d="M88.857,81.631,78.323,71.1a15.915,15.915,0,1,0-3.457,2.814L85.721,84.767a2.217,2.217,0,0,0,3.136-3.136ZM55.138,60.253a11.51,11.51,0,1,1,11.51,11.51A11.523,11.523,0,0,1,55.138,60.253Z" transform="translate(-43.507 -44.308)"/></svg>