<svg xmlns="http://www.w3.org/2000/svg" width="52.296" height="52.362" viewBox="0 0 52.296 52.362"><defs><style>.a{fill:#022b69;}.b{fill:#1aa1de;}</style></defs><path class="a" d="M38.326,98.715a1.778,1.778,0,0,1-.6-3.452,19.309,19.309,0,0,1,9.006-.956,1.777,1.777,0,0,1-.468,3.524,15.768,15.768,0,0,0-7.34.78A1.764,1.764,0,0,1,38.326,98.715Z" transform="translate(-36.548 -59.532)"/><path class="a" d="M53.783,109.724a1.771,1.771,0,0,1-1.257-.521L40.994,97.67a1.778,1.778,0,0,1,2.514-2.514L55.04,106.689a1.778,1.778,0,0,1-1.257,3.035Z" transform="translate(-38.147 -59.733)"/><path class="b" d="M108.712,54.785a1.77,1.77,0,0,1-1.257-.521L95.97,42.776a1.777,1.777,0,0,1,2.514-2.514L109.969,51.75a1.777,1.777,0,0,1-1.257,3.035Z" transform="translate(-60.545 -37.369)"/><path class="b" d="M69.957,94.526a1.773,1.773,0,0,1-1.256-.519L57.923,83.252a1.778,1.778,0,0,1,2.511-2.517L71.213,91.489a1.778,1.778,0,0,1-1.256,3.036Z" transform="translate(-45.044 -53.859)"/><path class="b" d="M77.834,86.69a1.771,1.771,0,0,1-1.257-.521L61.8,71.4a1.778,1.778,0,0,1,2.514-2.514L79.091,83.656a1.778,1.778,0,0,1-1.257,3.035Z" transform="translate(-46.624 -49.029)"/><path class="b" d="M109.4,62.513a18.915,18.915,0,0,1-1.974-.1,1.778,1.778,0,0,1,.369-3.536,15.727,15.727,0,0,0,6.9-.831,1.778,1.778,0,1,1,1.2,3.348A19.349,19.349,0,0,1,109.4,62.513Z" transform="translate(-64.775 -44.783)"/><path class="b" d="M59.266,95.939a1.779,1.779,0,0,1-1.672-2.382,15.6,15.6,0,0,0-.336-11.482A19.563,19.563,0,0,1,61.511,60.74,19.8,19.8,0,0,1,77.6,55.1a1.778,1.778,0,1,1-.4,3.533,16.2,16.2,0,0,0-13.172,4.62,15.98,15.98,0,0,0-3.5,17.421,19.149,19.149,0,0,1,.413,14.089A1.78,1.78,0,0,1,59.266,95.939Z" transform="translate(-44.372 -43.577)"/><path class="a" d="M70.2,76.676q-.739,0-1.476-.057A1.778,1.778,0,0,1,69,73.073a16.288,16.288,0,0,0,12.63-4.67,15.981,15.981,0,0,0,3.5-17.422,19.147,19.147,0,0,1-.42-14.067,1.778,1.778,0,0,1,3.346,1.2,15.6,15.6,0,0,0,.342,11.464,19.566,19.566,0,0,1-4.252,21.337A19.927,19.927,0,0,1,70.2,76.676Z" transform="translate(-48.987 -35.737)"/><path class="a" d="M92.914,70.379a1.773,1.773,0,0,1-1.257-.521L80.8,59.006a1.777,1.777,0,0,1,2.514-2.514L94.171,67.344a1.778,1.778,0,0,1-1.257,3.035Z" transform="translate(-54.367 -43.981)"/><path class="a" d="M85.682,78.841a1.774,1.774,0,0,1-1.257-.52L69.652,63.549a1.778,1.778,0,0,1,2.514-2.514L86.939,75.806a1.777,1.777,0,0,1-1.257,3.035Z" transform="translate(-49.823 -45.832)"/></svg>