<svg xmlns="http://www.w3.org/2000/svg" width="35.888" height="35.889" viewBox="0 0 35.888 35.889"><defs><style>.a{fill:#022b69;}.b{fill:#1aa1de;}</style></defs><path class="a" d="M1591.818,79.763a17.944,17.944,0,1,1,17.944-17.945A17.965,17.965,0,0,1,1591.818,79.763Zm0-31.995a14.05,14.05,0,1,0,14.05,14.05A14.066,14.066,0,0,0,1591.818,47.768Z" transform="translate(-1573.874 -43.874)"/><circle class="b" cx="1.322" cy="1.322" r="1.322" transform="translate(22.304 9.188)"/><circle class="b" cx="1.918" cy="1.918" r="1.918" transform="translate(11.172 9.381)"/><circle class="b" cx="0.989" cy="0.989" r="0.989" transform="translate(26.458 19.124)"/><circle class="b" cx="0.716" cy="0.716" r="0.716" transform="translate(17.924 16.494)"/><circle class="b" cx="0.989" cy="0.989" r="0.989" transform="translate(7.97 19.511)"/><circle class="b" cx="2.645" cy="2.645" r="2.645" transform="translate(15.133 22.993)"/></svg>