<svg xmlns="http://www.w3.org/2000/svg" width="71.896" height="71.714" viewBox="0 0 71.896 71.714"><defs><style>.a{fill:#022b69;}.b{fill:#1aa1de;}</style></defs><path class="a" d="M61.944,82.738H52.957a1.5,1.5,0,0,0-1.5,1.5V108.2a1.464,1.464,0,0,0,1.5,1.473h8.987a1.466,1.466,0,0,0,1.5-1.473V84.236A1.5,1.5,0,0,0,61.944,82.738Z" transform="translate(-51.459 -40.802)"/><path class="a" d="M120.828,94.735c-3.52-3.514-6.55-4.488-10.52-3.355L101.3,94.366a8.806,8.806,0,0,1,.123,1.435,7.9,7.9,0,0,1-1.752,5.071,6.736,6.736,0,0,1-5.362,2.418H77.829a1.5,1.5,0,0,1-1.5-1.5,1.534,1.534,0,0,1,1.5-1.522H94.305a3.682,3.682,0,0,0,3.058-1.315,4.967,4.967,0,0,0,1.06-3.154c0-1.674-.868-4.494-4.118-4.494H85.318a1.484,1.484,0,0,1-1.061-.446c-1.671-1.669-6.222-5.548-12.42-5.548H65.846a1.5,1.5,0,0,0-1.5,1.5v16.475a1.5,1.5,0,0,0,1.025,1.418c4.746,1.578,8.481,2.935,11.482,4.031,6,2.179,9.377,3.362,12.4,3.362,3.631,0,6.762-1.7,13.34-5.416,4.1-2.312,9.709-5.483,17.838-9.544a1.5,1.5,0,0,0,.389-2.4Z" transform="translate(-49.37 -40.384)"/><path class="b" d="M75.714,80.348a7.6,7.6,0,0,0,6.138-3.394A58.29,58.29,0,0,1,87.3,90.488a2.994,2.994,0,0,0,5.73.419,38.114,38.114,0,0,1,3.951-7.327,6.559,6.559,0,0,0,5.054,2.4h0a10.3,10.3,0,0,0,7.133-3.58c3.6-3.787,5.665-14.032,2.861-20.128a1.486,1.486,0,0,0-.995-.83,1.52,1.52,0,0,0-1.27.258,19.552,19.552,0,0,1-7.617,3.271,20.8,20.8,0,0,0-6.762,2.672c-2.6,1.735-4.1,4.128-4.1,6.552a6.679,6.679,0,0,0,1.863,4.511,39.58,39.58,0,0,0-2.288,3.307A69.916,69.916,0,0,0,86.3,72.538a9.151,9.151,0,0,0,4.071-5.409c.691-2.984-.465-6.276-3.44-9.772-2.78-3.28-6.5-4.4-10.44-5.585-3.448-1.039-7.012-2.109-10.155-4.766a1.492,1.492,0,0,0-2.282.437c-4.128,7.8-2.187,22.021,2.331,27.344C68.532,77.322,71.9,80.348,75.714,80.348ZM70.408,57.77c.575-.578,1.384-.661,2.312.171a63.749,63.749,0,0,1,12.3,15.389l.015-.012A69.444,69.444,0,0,1,90.556,85.5c3.077-5.394,6.872-10.661,12.48-13.459a1.515,1.515,0,0,1,1.935.575c.594,1.018.084,1.443-.593,2.1C97.812,78,92.923,86.585,91.632,90.374h0a1.487,1.487,0,0,1-2.8-.036c-1.06-3-1.644-6.9-6.041-14.774l.009-.012a60.965,60.965,0,0,0-12.34-15.628A1.534,1.534,0,0,1,70.408,57.77Z" transform="translate(-49.786 -46.649)"/></svg>