<svg xmlns="http://www.w3.org/2000/svg" width="46.271" height="46.265" viewBox="0 0 46.271 46.265"><defs><style>.a{fill:#022b69;}.b{fill:#1aa1de;}.c{fill:none;}.d{fill:#fff;}</style></defs><g transform="translate(0 0)"><g transform="translate(0 28.95)"><path class="a" d="M54.627,88.117,48.813,98.17a.963.963,0,0,0,1,1.432l6.63-1.123,2.3,6.319a.963.963,0,0,0,1.731.164l4.939-8.295A20.321,20.321,0,0,1,54.627,88.117Z" transform="translate(-48.681 -88.117)"/><path class="a" d="M105.432,88.117l5.814,10.053a.963.963,0,0,1-1,1.432l-6.629-1.123-2.3,6.319a.962.962,0,0,1-1.731.164l-4.939-8.295A20.317,20.317,0,0,0,105.432,88.117Z" transform="translate(-65.108 -88.117)"/></g><path class="b" d="M74.5,43.07A18.313,18.313,0,1,0,92.811,61.383,18.335,18.335,0,0,0,74.5,43.07Z" transform="translate(-51.362 -43.07)"/></g><g transform="translate(0.004)"><rect class="c" width="46.265" height="46.265"/></g><path class="d" d="M79.887,76.538a.961.961,0,0,1-1.134,0c-.927-.672-9.072-6.741-9.072-11.761a5.457,5.457,0,0,1,5.261-5.752,5.119,5.119,0,0,1,4.378,2.635A5.121,5.121,0,0,1,83.7,59.025a5.456,5.456,0,0,1,5.261,5.752C88.959,69.8,80.815,75.865,79.887,76.538Z" transform="translate(-56.185 -48.771)"/></svg>