<svg xmlns="http://www.w3.org/2000/svg" width="50.227" height="50.227" viewBox="0 0 50.227 50.227"><defs><style>.a{fill:#022b69;}.b{fill:#1aa1de;}</style></defs><path class="a" d="M54.406,30.526A25.114,25.114,0,1,0,79.52,55.64,25.142,25.142,0,0,0,54.406,30.526Zm0,47.184a22.07,22.07,0,1,1,22.07-22.07A22.095,22.095,0,0,1,54.406,77.71Z" transform="translate(-29.293 -30.526)"/><path class="b" d="M75.537,74.044,79.9,68.661a1.578,1.578,0,0,0,.3-.936,1.556,1.556,0,0,0-.488-1.146,1.611,1.611,0,0,0-1.134-.456,1.467,1.467,0,0,0-1.244.6l-3.766,4.818-6.315-7.133a4.776,4.776,0,0,0,2.267-4.252A4.406,4.406,0,0,0,67.871,56.6,7.141,7.141,0,0,0,63.251,55.3H58.5a1.6,1.6,0,0,0-1.175.5,1.65,1.65,0,0,0-.468,1.166V69.437A1.629,1.629,0,0,0,58.5,71.08a1.655,1.655,0,0,0,1.166-.468,1.6,1.6,0,0,0,.5-1.175v-4h3c.2,0,.4-.009.6-.02l7.783,8.676L67.215,79.42a1.662,1.662,0,0,0-.329,1.006,1.6,1.6,0,0,0,1.582,1.582,1.634,1.634,0,0,0,1.285-.645l3.736-4.78,3.773,4.742a1.586,1.586,0,0,0,1.318.684,1.607,1.607,0,0,0,1.185-.488,1.633,1.633,0,0,0,.457-1.155,1.467,1.467,0,0,0-.346-.988ZM65.507,61.66a4.251,4.251,0,0,1-2.378.569H60.164V58.5h2.863a4.511,4.511,0,0,1,2.6.511,1.471,1.471,0,0,1,.592,1.292A1.51,1.51,0,0,1,65.507,61.66Z" transform="translate(-43.531 -43.321)"/></svg>