<svg xmlns="http://www.w3.org/2000/svg" width="31.42" height="31.502" viewBox="0 0 31.42 31.502"><defs><style>.a{fill:#1aa1de;}</style></defs><path class="a" d="M15.71,7.65a8.108,8.108,0,0,0-3.15.614,8.263,8.263,0,0,0-4.3,4.3,8.392,8.392,0,0,0,0,6.3,8.263,8.263,0,0,0,4.3,4.3,8.392,8.392,0,0,0,6.3,0,8.263,8.263,0,0,0,4.3-4.3,8.392,8.392,0,0,0,0-6.3,8.263,8.263,0,0,0-4.3-4.3A8.108,8.108,0,0,0,15.71,7.65Zm0,13.3a5.238,5.238,0,0,1-5.237-5.237,5.238,5.238,0,0,1,5.237-5.237,5.238,5.238,0,0,1,5.237,5.237,5.238,5.238,0,0,1-5.237,5.237ZM25.979,7.323a1.746,1.746,0,0,0-.552-1.309,1.928,1.928,0,0,0-2.659,0,1.746,1.746,0,0,0-.552,1.309,1.794,1.794,0,0,0,.552,1.35,1.928,1.928,0,0,0,2.659,0A1.794,1.794,0,0,0,25.979,7.323ZM30.6,5.441a7.963,7.963,0,0,0-1.821-2.8A8.052,8.052,0,0,0,26.02.818a13.53,13.53,0,0,0-1.9-.511A10.309,10.309,0,0,0,22.174.123q-1.227-.082-2.25-.1T15.71,0Q12.519,0,11.5.02t-2.25.1A10.309,10.309,0,0,0,7.3.307,12.092,12.092,0,0,0,5.441.818,8.043,8.043,0,0,0,.818,5.441,12.092,12.092,0,0,0,.307,7.3,13.252,13.252,0,0,0,.082,9.246Q.041,10.514.02,11.517T0,15.71Q0,18.9.02,19.924t.061,2.291a12.768,12.768,0,0,0,.225,1.923A13.778,13.778,0,0,0,.818,26.02,7.762,7.762,0,0,0,2.639,28.8a8.1,8.1,0,0,0,2.8,1.8,10.894,10.894,0,0,0,1.861.573,9.313,9.313,0,0,0,1.943.2q1.268.082,2.271.1t4.193.02q3.191,0,4.214-.02t2.291-.1a10.1,10.1,0,0,0,1.9-.184,13.53,13.53,0,0,0,1.9-.511A7.762,7.762,0,0,0,28.8,28.863a8.1,8.1,0,0,0,1.8-2.8,9.744,9.744,0,0,0,.552-1.861,10.31,10.31,0,0,0,.184-1.943q.041-1.268.061-2.271t.02-4.193V11.557q0-1-.082-2.271a10.634,10.634,0,0,0-.184-1.964A9.656,9.656,0,0,0,30.6,5.441Zm-2.127,16.61a7.913,7.913,0,0,1-.143,1.514A10.073,10.073,0,0,1,27.943,25a5.22,5.22,0,0,1-1.186,1.841,4.832,4.832,0,0,1-1.8,1.146,6.6,6.6,0,0,1-1.432.409,13.51,13.51,0,0,1-1.473.164q-1.268.041-2.23.061t-4.153.02q-3.191,0-4.153-.02t-2.23-.061a7.6,7.6,0,0,1-1.493-.143,8.734,8.734,0,0,1-1.452-.43,4.832,4.832,0,0,1-1.8-1.146A5.22,5.22,0,0,1,3.355,25a10.072,10.072,0,0,1-.389-1.432,7.7,7.7,0,0,1-.143-1.473q-.082-1.227-.082-2.209V11.557q0-.961.082-2.23a7.7,7.7,0,0,1,.143-1.473,11.742,11.742,0,0,1,.389-1.473A5.356,5.356,0,0,1,6.341,3.4a12.1,12.1,0,0,1,1.452-.389,7.6,7.6,0,0,1,1.493-.143Q10.514,2.823,11.5,2.8t4.173-.02h4.153q.961,0,2.23.082a7.7,7.7,0,0,1,1.473.143,10.072,10.072,0,0,1,1.432.389,5.356,5.356,0,0,1,2.987,2.987,12.1,12.1,0,0,1,.389,1.452,7.6,7.6,0,0,1,.143,1.493q.041,1.227.061,2.209t.02,4.173v4.153q0,.961-.041,2.189Z"/></svg>