<svg xmlns="http://www.w3.org/2000/svg" width="51" height="51" viewBox="0 0 51 51"><defs><style>.a{fill:#fff;}.b{fill:#022b69;}</style></defs><g transform="translate(51 51) rotate(180)"><circle class="a" cx="25.5" cy="25.5" r="25.5"/><path class="b" d="M2.025,17.114l8.3-7.629a.986.986,0,0,0,0-1.485L10.3,7.966l-.034-.034L2.025.371a1.144,1.144,0,0,0-1.688,0V.439A.9.9,0,0,0,0,1.181V16.3a1.022,1.022,0,0,0,.405.81H.338A1.144,1.144,0,0,0,2.025,17.114ZM21.6,23.866" transform="translate(22 17)"/></g></svg>