<svg xmlns="http://www.w3.org/2000/svg" width="180" height="179" viewBox="0 0 180 179"><defs><style>.a{fill:#eae7f2;}.b{fill:#1b2f67;}.c{fill:#5d9fda;opacity:0.2;mix-blend-mode:hard-light;isolation:isolate;}.d,.g,.h{fill:none;}.d{stroke:#1c2b26;stroke-width:1.128px;}.e,.f{fill:#fff;}.f{fill-rule:evenodd;}.g,.h{stroke:#fff;stroke-linecap:round;}.g{stroke-width:2px;}.h{stroke-width:1.732px;}</style></defs><rect class="a" width="180" height="179" rx="25"/><g transform="translate(12.449 35.556)"><rect class="b" width="154.304" height="108.21" rx="5.17"/><path class="c" d="M14.919,137.155l22.535-35.727a26.022,26.022,0,0,0,4.012-13.883h0A26.022,26.022,0,0,0,37.475,73.7L14.919,37.808,40.509,71.58a26.328,26.328,0,0,1,5.345,15.9h0a26.331,26.331,0,0,1-5.345,15.9Z" transform="translate(-10.776 -30.99)"/><rect class="c" width="94.43" height="3.405" rx="1.519" transform="translate(135.943 103.706) rotate(-90)"/><g transform="translate(31.58 35.013)"><path class="d" d="M71.086,77.59" transform="translate(-35.574 -61.2)"/><path class="e" d="M68.746,81.925a2.293,2.293,0,0,1-1.75.693,2.675,2.675,0,0,1-1.847-.693,3.077,3.077,0,0,1-.089-4.521,2.75,2.75,0,0,1,1.969-.814,1.976,1.976,0,0,1,1.661.749v-.66h1.737v5.906H68.746Zm-1.365-.88a1.4,1.4,0,0,0,1.376-1.429,1.437,1.437,0,0,0-1.441-1.486,1.458,1.458,0,1,0,.065,2.915Z" transform="translate(-36.416 -61.32)"/><path class="e" d="M70.339,78.173v-1.3h.748V74.962h1.76v1.913h.781v1.3h-.781v4.609h-1.76V78.173Z" transform="translate(-35.664 -61.517)"/><path class="e" d="M73.843,82.782v-7.82H75.5v2.649a1.817,1.817,0,0,1,1.66-.846,1.909,1.909,0,0,1,2.013,2.122v3.895H77.44v-3.2c0-.825-.176-1.2-.847-1.2s-1.045.407-1.045,1.2v3.2Z" transform="translate(-35.241 -61.517)"/><path class="e" d="M85.284,80.877a2.978,2.978,0,0,1-2.871,1.859,2.923,2.923,0,0,1-2.234-.946A3.113,3.113,0,0,1,79.31,79.6a3.025,3.025,0,0,1,.9-2.166,3.08,3.08,0,0,1,2.178-.925c1.882,0,3.167,1.353,3.167,3.553v.186H81.1a1.235,1.235,0,0,0,1.364.958,1.289,1.289,0,0,0,.9-.332Zm-1.475-1.858a1.364,1.364,0,0,0-1.4-.935,1.278,1.278,0,0,0-1.364.935Z" transform="translate(-34.581 -61.33)"/><path class="e" d="M85.583,82.587V76.681h1.572v.792a1.747,1.747,0,0,1,1.606-.9,1.8,1.8,0,0,1,1.639.946,2.338,2.338,0,0,1,1.826-.946A1.9,1.9,0,0,1,94.3,78.693v3.895H92.611v-3.2c0-.825-.176-1.2-.826-1.2s-1.011.407-1.011,1.2v3.2h-1.7v-3.2c0-.825-.176-1.2-.826-1.2s-1.011.407-1.011,1.2v3.2Z" transform="translate(-33.823 -61.323)"/><path class="e" d="M98.685,81.925a2.291,2.291,0,0,1-1.749.693,2.677,2.677,0,0,1-1.848-.693A3.078,3.078,0,0,1,95,77.4a2.748,2.748,0,0,1,1.969-.814,1.973,1.973,0,0,1,1.66.749v-.66h1.738v5.906H98.685Zm-1.364-.88A1.4,1.4,0,0,0,98.7,79.616a1.436,1.436,0,0,0-1.44-1.486,1.458,1.458,0,1,0,.066,2.915Z" transform="translate(-32.8 -61.32)"/><path class="e" d="M56.978,83.266a9.82,9.82,0,0,0-1.032-1.843c-.039-.057-.081-.113-.121-.17l-.061.071c-.231.27-.452.532-.66.793h0a12.2,12.2,0,0,1,1.036,1.537,5.887,5.887,0,0,1,.553,1.568c.021.129.043.254.063.378s0,.245.011.364.006.239.008.352a1.684,1.684,0,0,1-.026.332c-.013.113-.027.223-.039.327s-.04.2-.059.287a3.681,3.681,0,0,1-.123.509c-.045.155-.086.293-.122.414s-.08.22-.109.3c-.061.165-.092.253-.092.253l.151-.223a5.261,5.261,0,0,0,.4-.655,3.93,3.93,0,0,0,.24-.5,3.786,3.786,0,0,0,.217-.614,2.1,2.1,0,0,0,.093-.359c.019-.126.039-.256.059-.389a3.107,3.107,0,0,0,.047-.415c0-.142-.009-.289-.012-.438A5.608,5.608,0,0,0,56.978,83.266Z" transform="translate(-37.504 -60.757)"/><path class="f" d="M39.4,65.039a3.6,3.6,0,0,0,3.238.513c1.984-.452,3.935-1.042,5.9-1.561,1.2-.316,2.391-.643,3.6-.892,1-.205,2.68-.346,3.01.93.061.232.044.429-.211.5a1.973,1.973,0,0,0-1.487,1.335,2.846,2.846,0,0,0,.22,2.178,1.085,1.085,0,0,1,.108.287,2.009,2.009,0,0,1-.823-.577,2.089,2.089,0,0,1-.474-.888,3.178,3.178,0,0,1,.389-2.136c-.529-.308-2.261.013-3.192.25-1.948.5-3.878,1.069-5.83,1.547a5.74,5.74,0,0,1-2.987.081A1.775,1.775,0,0,1,39.4,65.039Z" transform="translate(-39.4 -62.966)"/><path class="f" d="M41.613,66.8c1.209.825,2.663.366,3.948.013,1.485-.409,2.97-.818,4.457-1.217.567-.152,1.334-.362,1.9-.5-.147.912-.018.924-.687,1.121-1.652.49-3.291,1.036-4.959,1.458a8.391,8.391,0,0,1-2.887.372A1.868,1.868,0,0,1,41.613,66.8Z" transform="translate(-39.133 -62.708)"/><path class="f" d="M50.905,66.756a25.369,25.369,0,0,1-3.266,1.114,4.6,4.6,0,0,1-.81.117,4.652,4.652,0,0,1-.891-.066l.077.093.006,0c.872.824,2.629.354,3.788-.038a18.509,18.509,0,0,0,1.928-.746C51.442,66.567,51.44,66.56,50.905,66.756Z" transform="translate(-38.611 -62.521)"/><path class="f" d="M72.052,65.039a3.6,3.6,0,0,1-3.239.513c-1.983-.452-3.934-1.042-5.9-1.561-1.2-.316-2.391-.643-3.6-.892-1-.205-2.679-.346-3.009.93-.059.232-.044.429.211.5A1.973,1.973,0,0,1,58,65.86a2.836,2.836,0,0,1-.22,2.178,1.125,1.125,0,0,0-.108.287,2.009,2.009,0,0,0,.823-.577,2.092,2.092,0,0,0,.475-.888,3.182,3.182,0,0,0-.389-2.137c.528-.307,2.259.015,3.192.251,1.948.5,3.877,1.069,5.829,1.547a5.737,5.737,0,0,0,2.986.081A1.776,1.776,0,0,0,72.052,65.039Z" transform="translate(-37.363 -62.966)"/><path class="f" d="M69.25,66.8c-1.21.826-2.663.368-3.95.015-1.485-.409-2.97-.818-4.456-1.217-.568-.152-1.334-.362-1.905-.5.147.912.018.924.688,1.121,1.652.49,3.289,1.036,4.958,1.458a8.391,8.391,0,0,0,2.887.372A1.87,1.87,0,0,0,69.25,66.8Z" transform="translate(-37.041 -62.708)"/><path class="f" d="M59.472,66.756a25.311,25.311,0,0,0,3.266,1.114,4.6,4.6,0,0,0,.81.117,4.666,4.666,0,0,0,.891-.066c-.027.031-.053.062-.077.093l-.007,0c-.872.824-2.629.354-3.789-.038a18.781,18.781,0,0,1-1.927-.746C58.934,66.567,58.936,66.56,59.472,66.756Z" transform="translate(-37.077 -62.521)"/><path class="e" d="M64.57,77.62a2.527,2.527,0,0,0-1.058-2.206,3.267,3.267,0,0,0-1.985-.429h-1.32c-.092.258-.2.513-.314.765a13.559,13.559,0,0,1-.968,1.728v5.346h1.919V80.3H61.4a3.689,3.689,0,0,0,1.93-.353A2.634,2.634,0,0,0,64.57,77.62Zm-3.351.982h-.353V76.739h.507c.85,0,1.257.263,1.257.915C62.63,78.36,62.167,78.6,61.219,78.6Z" transform="translate(-37.042 -61.514)"/><path class="e" d="M54.318,83.2H54.9v-.465h-.282C54.511,82.887,54.412,83.041,54.318,83.2Z" transform="translate(-37.599 -60.579)"/><path class="e" d="M53.642,84.844c0,.018-.006.037-.009.056h1.349v-.465h-1.24C53.7,84.572,53.669,84.708,53.642,84.844Z" transform="translate(-37.681 -60.373)"/><path class="e" d="M53.62,86.387c.009.057.019.111.03.163h1.337v-.465h-1.4C53.6,86.188,53.61,86.289,53.62,86.387Z" transform="translate(-37.687 -60.174)"/><path class="e" d="M58.256,69.6s.081.047.234.133l.281.159c.106.071.228.157.364.256a4.93,4.93,0,0,1,.878.846,3.965,3.965,0,0,1,.732,1.456,4.6,4.6,0,0,1,.077,1.95,7.389,7.389,0,0,1-.648,2.035,13.737,13.737,0,0,1-1.11,1.933c-.426.622-.887,1.225-1.356,1.813s-.976,1.141-1.453,1.692-.952,1.076-1.366,1.615a11.977,11.977,0,0,0-1.066,1.577,5.809,5.809,0,0,0-.553,1.568c-.021.129-.044.254-.064.378s0,.245-.011.364-.006.238-.008.352a1.61,1.61,0,0,0,.027.332c.013.113.027.222.039.327s.039.194.058.286a3.941,3.941,0,0,0,.123.509c.046.156.087.294.122.415s.08.22.11.3l.091.254s-.052-.078-.151-.223a5.347,5.347,0,0,1-.4-.655,4.029,4.029,0,0,1-.24-.5,3.856,3.856,0,0,1-.217-.614,2.2,2.2,0,0,1-.092-.358c-.019-.126-.039-.256-.061-.389a3.554,3.554,0,0,1-.047-.415c0-.143.009-.289.012-.438a5.63,5.63,0,0,1,.42-1.88,9.792,9.792,0,0,1,1.033-1.843c.409-.586.848-1.175,1.326-1.735s.947-1.13,1.405-1.7.924-1.134,1.336-1.714A17.044,17.044,0,0,0,59.2,75.943a7.95,7.95,0,0,0,.717-1.732,4.43,4.43,0,0,0,.131-1.625,3.928,3.928,0,0,0-.429-1.335,5.636,5.636,0,0,0-.652-.926c-.106-.12-.2-.226-.286-.318s-.169-.165-.233-.224Z" transform="translate(-37.812 -62.165)"/><path class="e" d="M54.356,81.872l.068.078c.037-.05.074-.1.112-.149.208-.273.426-.544.646-.809-.443-.53-.888-1.061-1.319-1.6-.47-.564-.922-1.134-1.335-1.714a17.059,17.059,0,0,1-1.119-1.737,8.062,8.062,0,0,1-.717-1.732,4.454,4.454,0,0,1-.131-1.625,3.929,3.929,0,0,1,.43-1.335,5.7,5.7,0,0,1,.65-.926l.287-.318c.092-.089.169-.165.233-.224l.194-.187s-.081.047-.234.133l-.281.159c-.106.071-.228.157-.363.256a4.895,4.895,0,0,0-.879.846,3.948,3.948,0,0,0-.732,1.456,4.615,4.615,0,0,0-.077,1.95,7.462,7.462,0,0,0,.647,2.035,13.94,13.94,0,0,0,1.112,1.934c.425.621.885,1.224,1.356,1.812S53.88,81.319,54.356,81.872Z" transform="translate(-38.154 -62.165)"/><path class="e" d="M59.144,71.117V71h-.067C59.1,71.039,59.122,71.079,59.144,71.117Z" transform="translate(-37.024 -61.995)"/><path class="e" d="M58.856,71H55.382v.466h3.675A3.915,3.915,0,0,0,58.856,71Z" transform="translate(-37.47 -61.995)"/><path class="e" d="M59.269,72.845H55.382v.465H59.2C59.234,73.153,59.255,73,59.269,72.845Z" transform="translate(-37.47 -61.773)"/><path class="e" d="M58.446,75.1c.083-.155.161-.31.235-.465h-3.3V75.1Z" transform="translate(-37.47 -61.557)"/><path class="e" d="M57.277,76.706c.071-.1.14-.2.208-.294h-2.1v.465h1.766C57.191,76.82,57.236,76.763,57.277,76.706Z" transform="translate(-37.47 -61.342)"/><path class="e" d="M55.945,78.206c.019-.022.036-.045.054-.066h-.616v.465h.234Z" transform="translate(-37.47 -61.133)"/><path class="e" d="M51.293,71.1a3.847,3.847,0,0,0-.166.37h3.53V71H51.349C51.331,71.035,51.312,71.066,51.293,71.1Z" transform="translate(-37.984 -61.995)"/><path class="e" d="M50.772,71h-.249v.4A4.106,4.106,0,0,1,50.772,71Z" transform="translate(-38.057 -61.995)"/><path class="e" d="M50.949,73.31h3.735v-.465H50.9A4.533,4.533,0,0,0,50.949,73.31Z" transform="translate(-38.011 -61.773)"/><path class="e" d="M51.6,75.1h3.023v-.465h-3.25C51.448,74.787,51.524,74.942,51.6,75.1Z" transform="translate(-37.954 -61.557)"/><path class="e" d="M52.711,76.828l.037.049H54.5v-.465H52.417C52.512,76.55,52.611,76.689,52.711,76.828Z" transform="translate(-37.828 -61.342)"/><path class="e" d="M51.278,76.824v0h0Z" transform="translate(-37.966 -61.292)"/><path class="e" d="M53.884,78.327l.229.278h.23V78.14h-.61C53.785,78.2,53.833,78.266,53.884,78.327Z" transform="translate(-37.669 -61.133)"/><path class="e" d="M55.378,82.732h-.541V83.2h.826Q55.53,82.963,55.378,82.732Z" transform="translate(-37.536 -60.579)"/><path class="e" d="M56.326,84.732c-.018-.1-.044-.2-.068-.3H54.837V84.9h1.514C56.342,84.844,56.337,84.788,56.326,84.732Z" transform="translate(-37.536 -60.373)"/><path class="e" d="M56.334,86.285c.008-.065.017-.133.025-.2H54.837v.465h1.444C56.3,86.464,56.319,86.379,56.334,86.285Z" transform="translate(-37.536 -60.174)"/><path class="e" d="M55.112,64.769a2.1,2.1,0,0,0-.372,4.168V80.872l.313.378.307-.372V68.956a2.1,2.1,0,0,0-.248-4.187Zm1.148,3.286h-.43l-.28-.464-.281.464h-.393l.485-.757-.17-.289a.759.759,0,0,1-.5.192.718.718,0,0,1-.541-.232.759.759,0,0,1-.206-.54.728.728,0,0,1,.221-.527.748.748,0,0,1,1.232.287h-.406a.4.4,0,0,0-.3-.141.382.382,0,0,0-.381.382.4.4,0,0,0,.381.41.368.368,0,0,0,.3-.165l-.019-.033H54.6v-.29h.83c0,.033,0,.065,0,.1a.791.791,0,0,1-.031.23l.217.37.272-.451h.393l-.48.737Z" transform="translate(-37.757 -62.748)"/><path class="e" d="M108.816,78.916a3.927,3.927,0,0,1-.671,2.289,4.057,4.057,0,0,1-3.335,1.75,3.869,3.869,0,0,1-2.9-1.243,4.076,4.076,0,0,1-1.111-2.9,4,4,0,0,1,4.038-3.984,4,4,0,0,1,3.763,2.7h-2.179a2.139,2.139,0,0,0-1.607-.76,2.052,2.052,0,0,0-2.046,2.058,2.144,2.144,0,0,0,2.046,2.2,1.987,1.987,0,0,0,1.761-1.057h-2.234V78.4h4.457C108.805,78.574,108.816,78.751,108.816,78.916Z" transform="translate(-31.986 -61.534)"/><path class="e" d="M107.867,82.784l2.609-4.062-2.224-3.764h2.19l1.42,2.422,1.464-2.422h2.113l-2.574,3.962,2.443,3.863H113L111.488,80.3l-1.507,2.488Z" transform="translate(-31.132 -61.517)"/></g><rect class="e" width="17.567" height="17.567" transform="translate(128.862 8.676)"/><g transform="translate(11.354 11.239)"><line class="g" x2="30.408"/><line class="g" x2="17.428" transform="translate(0 8.038)"/></g><g transform="translate(45.603 70.656)"><line class="g" x2="69.281" transform="translate(0.492)"/><line class="h" x2="61.104" transform="translate(0 8.221)"/><line class="g" x2="36.03" transform="translate(0.492 16.442)"/></g></g></svg>