<svg xmlns="http://www.w3.org/2000/svg" width="179" height="179" viewBox="0 0 179 179"><defs><style>.a{fill:#eae7f2;}.b{fill:#1b2f67;}.c{fill:#f6f6f6;}.d,.e{fill:none;stroke:#1b2f67;}.d{stroke-linecap:round;stroke-width:1.581px;}.e{stroke-miterlimit:10;stroke-width:0.781px;}</style></defs><path class="a" d="M25,0H154a25,25,0,0,1,25,25V154a25,25,0,0,1-25,25H25A25,25,0,0,1,0,154V25A25,25,0,0,1,25,0Z"/><g transform="translate(36.464 15.196)"><rect class="b" width="97.477" height="140.012" transform="translate(8.917 8.917)"/><rect class="c" width="97.477" height="140.012"/><path class="d" d="M45.9,29.859h67.8M63.626,47.582h50.08M45.9,65.305h67.8M63.626,83.028h50.08M45.9,100.934h67.8" transform="translate(-30.921 -11.591)"/><path class="e" d="M51.809,130.119a18.453,18.453,0,0,0,6.562-5.472,16.948,16.948,0,0,1-.031,4.507,139.986,139.986,0,0,0,11.928-9.893L69,123.611c.369-.575,1.3.1,1.316.78s-.382,1.351-.247,2.021,1.356.927,1.366.244c-.839.683.637,1.746,1.718,1.786a81.041,81.041,0,0,0,21.813-2.171,17.393,17.393,0,0,1,4.443-.707,22.375,22.375,0,0,1,4.972,1.057,44.2,44.2,0,0,0,10.347,1.125" transform="translate(-30.208 -0.795)"/></g></svg>