<svg xmlns="http://www.w3.org/2000/svg" width="180" height="179" viewBox="0 0 180 179"><defs><style>.a,.e{fill:#eae7f2;}.b{fill:#5d9fda;}.c{fill:#1b2f67;}.d{fill:#fff;font-size:14px;font-family:VarelaRound-Regular, Varela Round;}.e{fill-rule:evenodd;}</style></defs><rect class="a" width="180" height="179" rx="25"/><g transform="translate(14.146 36.876)"><rect class="b" width="146.479" height="99.853" rx="7.678" transform="translate(5.457 5.715)"/><rect class="c" width="146.479" height="99.853" rx="7.678"/><text class="d" transform="translate(11.616 66.986)"><tspan x="0" y="0">1-281-336-8960</tspan></text><g transform="translate(20.964 11.55)"><path class="a" d="M65.458,59.148" transform="translate(-26.752 -41.284)"/><path class="a" d="M62.907,63.872A2.5,2.5,0,0,1,61,64.628a2.918,2.918,0,0,1-2.014-.755,3.355,3.355,0,0,1-.1-4.928,3,3,0,0,1,2.145-.887,2.157,2.157,0,0,1,1.811.816v-.72H64.74v6.438H62.907Zm-1.487-.958a1.521,1.521,0,0,0,1.5-1.558,1.567,1.567,0,0,0-1.571-1.621,1.59,1.59,0,1,0,.072,3.178Z" transform="translate(-27.669 -41.416)"/><path class="a" d="M64.643,59.784V58.369h.815V56.283h1.919v2.086h.851v1.416h-.851v5.022H65.458V59.784Z" transform="translate(-26.85 -41.63)"/><path class="a" d="M68.462,64.806V56.283h1.81v2.889a1.984,1.984,0,0,1,1.81-.924,2.081,2.081,0,0,1,2.193,2.313v4.244H72.382V61.317c0-.9-.193-1.307-.924-1.307s-1.139.444-1.139,1.307v3.489Z" transform="translate(-26.389 -41.63)"/><path class="a" d="M80.931,62.732a3.244,3.244,0,0,1-3.13,2.025,3.182,3.182,0,0,1-2.433-1.03,3.393,3.393,0,0,1-.947-2.385,3.294,3.294,0,0,1,.984-2.361,3.358,3.358,0,0,1,2.373-1.008c2.05,0,3.453,1.474,3.453,3.872v.2H76.376a1.344,1.344,0,0,0,1.486,1.043,1.409,1.409,0,0,0,.983-.361Zm-1.608-2.026A1.485,1.485,0,0,0,77.8,59.687a1.393,1.393,0,0,0-1.486,1.019Z" transform="translate(-25.669 -41.426)"/><path class="a" d="M81.257,64.595V58.157h1.715v.863a1.9,1.9,0,0,1,1.749-.983,1.962,1.962,0,0,1,1.788,1.031A2.547,2.547,0,0,1,88.5,58.037a2.067,2.067,0,0,1,2.265,2.313v4.244H88.917V61.106c0-.9-.192-1.307-.9-1.307s-1.1.444-1.1,1.307v3.489H85.057V61.106c0-.9-.192-1.307-.9-1.307s-1.1.444-1.1,1.307v3.489Z" transform="translate(-24.844 -41.418)"/><path class="a" d="M95.538,63.872a2.5,2.5,0,0,1-1.906.755,2.918,2.918,0,0,1-2.014-.755,3.354,3.354,0,0,1-.1-4.928,3,3,0,0,1,2.146-.887,2.155,2.155,0,0,1,1.81.816v-.72h1.894v6.438H95.538Zm-1.486-.958a1.52,1.52,0,0,0,1.5-1.558,1.566,1.566,0,0,0-1.57-1.621,1.59,1.59,0,1,0,.073,3.178Z" transform="translate(-23.729 -41.416)"/><path class="a" d="M50.081,65.334a10.661,10.661,0,0,0-1.125-2.008l-.132-.185c-.021.026-.044.05-.066.076-.251.295-.491.579-.72.864v0a13.186,13.186,0,0,1,1.129,1.674,6.341,6.341,0,0,1,.6,1.709l.069.411c.02.134,0,.268.012.4s.006.26.009.383a1.833,1.833,0,0,1-.029.362c-.015.123-.029.243-.043.358s-.044.212-.064.312a4.5,4.5,0,0,1-.134.556l-.134.451c-.046.129-.086.239-.118.328-.066.18-.1.277-.1.277l.165-.243a5.581,5.581,0,0,0,.437-.713A4.6,4.6,0,0,0,50.1,69.8a4.285,4.285,0,0,0,.236-.669,2.49,2.49,0,0,0,.1-.391c.021-.137.043-.278.065-.424a3.48,3.48,0,0,0,.05-.452c0-.156-.009-.315-.012-.477A6.133,6.133,0,0,0,50.081,65.334Z" transform="translate(-28.855 -40.802)"/><path class="e" d="M30.922,45.468a3.915,3.915,0,0,0,3.529.559c2.162-.492,4.289-1.135,6.434-1.7,1.3-.344,2.606-.7,3.925-.972,1.087-.223,2.921-.378,3.28,1.014.066.252.048.467-.23.539a2.152,2.152,0,0,0-1.621,1.455,3.1,3.1,0,0,0,.24,2.374,1.185,1.185,0,0,1,.117.313,2.169,2.169,0,0,1-.9-.629,2.275,2.275,0,0,1-.518-.967,3.469,3.469,0,0,1,.424-2.329c-.576-.335-2.463.016-3.479.273-2.123.54-4.226,1.164-6.354,1.685a6.262,6.262,0,0,1-3.256.089A1.936,1.936,0,0,1,30.922,45.468Z" transform="translate(-30.922 -43.209)"/><path class="e" d="M33.334,47.387c1.319.9,2.9.4,4.3.015,1.617-.445,3.236-.891,4.856-1.326.619-.166,1.454-.395,2.076-.546-.159.993-.019,1.006-.749,1.222-1.8.533-3.585,1.129-5.4,1.588a9.151,9.151,0,0,1-3.147.407,2.04,2.04,0,0,1-1.937-1.359Z" transform="translate(-30.631 -42.929)"/><path class="e" d="M43.461,47.34a27.578,27.578,0,0,1-3.56,1.215,4.323,4.323,0,0,1-1.854.055c.029.034.058.067.084.1l.007,0c.95.9,2.866.386,4.129-.041a20.128,20.128,0,0,0,2.1-.814C44.047,47.134,44.044,47.126,43.461,47.34Z" transform="translate(-30.061 -42.725)"/><path class="e" d="M66.51,45.468a3.918,3.918,0,0,1-3.529.559c-2.162-.492-4.288-1.135-6.434-1.7-1.3-.344-2.606-.7-3.925-.972-1.087-.223-2.921-.378-3.28,1.013-.065.253-.047.468.23.54a2.151,2.151,0,0,1,1.621,1.455,3.1,3.1,0,0,1-.24,2.374,1.185,1.185,0,0,0-.117.313,2.194,2.194,0,0,0,.9-.629,2.273,2.273,0,0,0,.517-.967,3.466,3.466,0,0,0-.424-2.33c.576-.334,2.463.017,3.479.275,2.123.54,4.225,1.164,6.354,1.685a6.258,6.258,0,0,0,3.255.089A1.935,1.935,0,0,0,66.51,45.468Z" transform="translate(-28.702 -43.209)"/><path class="e" d="M63.456,47.386c-1.319.9-2.9.4-4.3.016-1.617-.445-3.236-.891-4.856-1.327-.619-.165-1.454-.393-2.076-.545.16.993.019,1.006.749,1.222,1.8.532,3.585,1.129,5.4,1.588a9.151,9.151,0,0,0,3.147.407,2.039,2.039,0,0,0,1.937-1.361Z" transform="translate(-28.35 -42.929)"/><path class="e" d="M52.8,47.34a27.578,27.578,0,0,0,3.56,1.215,4.323,4.323,0,0,0,1.854.055c-.029.034-.057.066-.084.1l-.007,0c-.95.9-2.866.386-4.13-.041a20.3,20.3,0,0,1-2.1-.814C52.213,47.134,52.216,47.126,52.8,47.34Z" transform="translate(-28.39 -42.725)"/><path class="a" d="M58.356,59.18a2.753,2.753,0,0,0-1.153-2.4,3.56,3.56,0,0,0-2.163-.468H53.6q-.151.422-.343.835A14.6,14.6,0,0,1,52.2,59.027v5.827h2.091V62.1h.6a4.022,4.022,0,0,0,2.1-.384A2.87,2.87,0,0,0,58.356,59.18ZM54.7,60.251h-.386V58.22h.554c.925,0,1.37.288,1.37,1C56.241,59.986,55.737,60.251,54.7,60.251Z" transform="translate(-28.352 -41.627)"/><path class="a" d="M47.182,65.259h.633v-.507h-.308C47.392,64.921,47.284,65.09,47.182,65.259Z" transform="translate(-28.959 -40.607)"/><path class="a" d="M46.444,67.054c0,.02-.006.04-.009.061h1.47v-.507H46.555C46.511,66.758,46.474,66.907,46.444,67.054Z" transform="translate(-29.049 -40.383)"/><path class="a" d="M46.422,68.735c.009.062.021.12.033.178h1.457v-.508H46.387C46.4,68.519,46.411,68.63,46.422,68.735Z" transform="translate(-29.055 -40.166)"/><path class="a" d="M51.473,50.435s.089.052.256.145l.306.175c.118.077.249.17.4.278a5.34,5.34,0,0,1,.957.922,4.307,4.307,0,0,1,.8,1.587,5.028,5.028,0,0,1,.085,2.125,8.088,8.088,0,0,1-.706,2.219,15.028,15.028,0,0,1-1.21,2.107c-.464.677-.965,1.335-1.478,1.976s-1.064,1.244-1.583,1.845-1.038,1.173-1.489,1.761a13.055,13.055,0,0,0-1.161,1.718,6.384,6.384,0,0,0-.6,1.709c-.024.14-.047.277-.069.411s0,.268-.011.4-.007.26-.009.383a1.834,1.834,0,0,0,.029.362c.015.123.029.242.043.358s.044.211.064.312a4.238,4.238,0,0,0,.134.555c.05.169.094.319.133.452s.086.239.119.328l.1.277s-.056-.085-.165-.243a5.889,5.889,0,0,1-.437-.713,4.545,4.545,0,0,1-.261-.55,4.245,4.245,0,0,1-.236-.669,2.356,2.356,0,0,1-.1-.39c-.02-.137-.043-.278-.065-.424a3.686,3.686,0,0,1-.052-.452q.007-.235.013-.477a6.112,6.112,0,0,1,.458-2.05,10.715,10.715,0,0,1,1.125-2.007c.446-.639.926-1.281,1.446-1.891s1.031-1.232,1.532-1.856,1.005-1.236,1.456-1.867A18.557,18.557,0,0,0,52.5,57.353a8.689,8.689,0,0,0,.782-1.888,4.816,4.816,0,0,0,.143-1.77,4.278,4.278,0,0,0-.468-1.456,6.184,6.184,0,0,0-.711-1.009c-.115-.131-.221-.247-.312-.347l-.254-.244Z" transform="translate(-29.191 -42.336)"/><path class="a" d="M47.223,63.815l.074.085c.041-.054.082-.109.122-.163.229-.3.465-.592.7-.881-.482-.578-.967-1.157-1.437-1.743-.512-.614-1.005-1.236-1.456-1.867a18.639,18.639,0,0,1-1.218-1.893,8.739,8.739,0,0,1-.781-1.888,4.84,4.84,0,0,1-.143-1.77,4.278,4.278,0,0,1,.468-1.456,6.185,6.185,0,0,1,.709-1.009c.117-.131.222-.247.313-.347l.253-.244.212-.2s-.087.052-.256.145l-.306.175c-.117.077-.249.17-.4.278a5.379,5.379,0,0,0-.957.922,4.29,4.29,0,0,0-.8,1.587,5.014,5.014,0,0,0-.085,2.126,8.128,8.128,0,0,0,.7,2.218,15.16,15.16,0,0,0,1.212,2.108c.463.676.965,1.334,1.478,1.975S46.7,63.213,47.223,63.815Z" transform="translate(-29.564 -42.336)"/><path class="a" d="M52.442,52.093v-.124h-.073C52.395,52.008,52.417,52.052,52.442,52.093Z" transform="translate(-28.332 -42.151)"/><path class="a" d="M52.128,51.969H48.342v.508h4A4.17,4.17,0,0,0,52.128,51.969Z" transform="translate(-28.818 -42.151)"/><path class="a" d="M52.577,53.976H48.342v.508h4.166A5.1,5.1,0,0,0,52.577,53.976Z" transform="translate(-28.818 -41.909)"/><path class="a" d="M51.681,56.432q.136-.254.257-.508h-3.6v.508Z" transform="translate(-28.818 -41.674)"/><path class="a" d="M50.408,58.185c.077-.106.151-.214.226-.321H48.342v.507h1.924C50.312,58.309,50.362,58.247,50.408,58.185Z" transform="translate(-28.818 -41.439)"/><path class="a" d="M48.955,59.82c.02-.025.038-.049.058-.073h-.671v.508H48.6Z" transform="translate(-28.818 -41.212)"/><path class="a" d="M43.884,52.073a4.143,4.143,0,0,0-.18.4h3.848v-.508H43.946C43.926,52,43.9,52.037,43.884,52.073Z" transform="translate(-29.379 -42.151)"/><path class="a" d="M43.316,51.969h-.271V52.4A4.437,4.437,0,0,1,43.316,51.969Z" transform="translate(-29.458 -42.151)"/><path class="a" d="M43.511,54.484h4.071v-.508H43.455A4.748,4.748,0,0,0,43.511,54.484Z" transform="translate(-29.409 -41.909)"/><path class="a" d="M44.225,56.432h3.294v-.508H43.976Q44.092,56.178,44.225,56.432Z" transform="translate(-29.346 -41.674)"/><path class="a" d="M45.431,58.317l.04.054h1.911v-.507H45.11Q45.266,58.091,45.431,58.317Z" transform="translate(-29.209 -41.439)"/><path class="a" d="M43.869,58.313v0h0Z" transform="translate(-29.359 -41.385)"/><path class="a" d="M46.709,59.952l.25.3h.25v-.508h-.665C46.6,59.815,46.653,59.884,46.709,59.952Z" transform="translate(-29.036 -41.212)"/><path class="a" d="M48.338,64.752h-.591v.507h.9Q48.5,65.006,48.338,64.752Z" transform="translate(-28.89 -40.607)"/><path class="a" d="M49.371,66.932c-.02-.108-.047-.215-.075-.324H47.747v.507H49.4C49.389,67.054,49.382,66.994,49.371,66.932Z" transform="translate(-28.89 -40.383)"/><path class="a" d="M49.38,68.625c.008-.071.017-.146.026-.219H47.747v.508h1.574C49.34,68.82,49.362,68.727,49.38,68.625Z" transform="translate(-28.89 -40.166)"/><path class="a" d="M48.047,45.174a2.29,2.29,0,0,0-.406,4.544V62.726c.114.137.226.273.34.411l.336-.407V49.739a2.29,2.29,0,0,0-.27-4.565ZM49.3,48.756h-.47l-.306-.505-.306.505h-.428l.529-.825-.186-.315a.827.827,0,0,1-.548.208.783.783,0,0,1-.59-.252.828.828,0,0,1-.225-.59.811.811,0,0,1,.82-.808.811.811,0,0,1,.763.547h-.443a.432.432,0,0,0-.326-.155.417.417,0,0,0-.415.418.434.434,0,0,0,.415.446.4.4,0,0,0,.333-.179l-.02-.035h-.408V46.9h.9c0,.036,0,.072,0,.105a.866.866,0,0,1-.035.251l.236.4.3-.492h.429l-.523.8Z" transform="translate(-29.131 -42.972)"/><path class="a" d="M106.58,60.594a4.273,4.273,0,0,1-.732,2.494A4.42,4.42,0,0,1,102.214,65a4.22,4.22,0,0,1-3.167-1.355,4.446,4.446,0,0,1-1.21-3.167,4.362,4.362,0,0,1,4.4-4.342,4.357,4.357,0,0,1,4.1,2.939h-2.376a2.33,2.33,0,0,0-1.751-.827,2.236,2.236,0,0,0-2.23,2.243,2.336,2.336,0,0,0,2.23,2.4,2.165,2.165,0,0,0,1.919-1.152H101.7v-1.7h4.857C106.568,60.222,106.58,60.413,106.58,60.594Z" transform="translate(-22.842 -41.649)"/><path class="a" d="M105.545,64.809l2.843-4.426-2.422-4.1h2.386l1.548,2.638,1.595-2.638h2.3L110.992,60.6l2.663,4.211h-2.518L109.492,62.1l-1.644,2.711Z" transform="translate(-21.911 -41.63)"/><path class="a" d="M114.572,57.864V56.589h-.308v-.384h1.029v.384h-.315v1.274Z" transform="translate(-20.858 -41.64)"/><path class="a" d="M115.288,57.864V56.205h.555l.317,1.014.319-1.014h.553v1.659h-.387v-1.1l-.343,1.1h-.287l-.343-1.1v1.1Z" transform="translate(-20.734 -41.64)"/></g></g></svg>