<svg xmlns="http://www.w3.org/2000/svg" xmlns:xlink="http://www.w3.org/1999/xlink" width="179" height="179" viewBox="0 0 179 179"><defs><style>.a{fill:none;}.b{fill:#eae7f2;}.c{clip-path:url(#a);}.d{fill:#1b2f67;}.e{fill:#fdfdfd;}</style><clipPath id="a"><rect class="a" width="179" height="179" rx="25" transform="translate(-0.293)"/></clipPath></defs><rect class="b" width="179" height="179" rx="25" transform="translate(0)"/><g transform="translate(0.293)"><g class="c"><path class="d" d="M7.6,0H9.435a7.6,7.6,0,0,1,7.6,7.6V250.947a0,0,0,0,1,0,0H0a0,0,0,0,1,0,0V7.6A7.6,7.6,0,0,1,7.6,0Z" transform="translate(245.651 228.791) rotate(135)"/></g></g><path class="d" d="M96.078,64.343a30.336,30.336,0,0,1,0,42.776,29.921,29.921,0,0,1-11.465,7.13,30.189,30.189,0,0,0,22-51.569L67.793,23.858a30.313,30.313,0,0,0-31.311-7.131,30.115,30.115,0,0,1,20.774,8.795Z" transform="translate(5.768 1.819)"/><path class="e" d="M27.2,66.453l38.822,38.822A30.113,30.113,0,0,0,86.8,114.07a29.921,29.921,0,0,0,11.465-7.13,30.336,30.336,0,0,0,0-42.776L59.442,25.342a30.115,30.115,0,0,0-20.774-8.795A29.935,29.935,0,0,0,27.2,23.677,30.335,30.335,0,0,0,27.2,66.453Z" transform="translate(3.583 1.998)"/></svg>