<svg xmlns="http://www.w3.org/2000/svg" viewBox="0 0 51 51" width="51" height="51">
	<style>
		tspan { white-space:pre }
		.shp0 { fill: #ffffff } 
		.shp1 { fill: #022b69 } 
	</style>
	<g id="Layer">
		<path id="Layer" class="shp0" d="M25.5 0C39.6 0 51 11.4 51 25.5C51 39.6 39.6 51 25.5 51C11.4 51 0 39.6 0 25.5C0 11.4 11.4 0 25.5 0Z" />
		<path id="Layer" class="shp1" d="M23.03 34.11L31.33 26.48C31.43 26.39 31.52 26.28 31.57 26.15C31.63 26.02 31.66 25.88 31.66 25.74C31.66 25.6 31.63 25.46 31.57 25.33C31.52 25.21 31.43 25.09 31.33 25L31.3 24.97L31.27 24.93L23.03 17.37C22.92 17.25 22.79 17.16 22.64 17.1C22.5 17.03 22.34 17 22.18 17C22.02 17 21.87 17.03 21.72 17.1C21.57 17.16 21.44 17.25 21.34 17.37L21.34 17.44C21.28 17.48 21.23 17.53 21.19 17.59C21.15 17.64 21.11 17.71 21.08 17.77C21.05 17.83 21.03 17.9 21.02 17.97C21 18.04 21 18.11 21 18.18L21 33.3C21 33.38 21.01 33.46 21.03 33.53C21.05 33.61 21.07 33.68 21.11 33.75C21.14 33.82 21.19 33.89 21.24 33.95C21.29 34.01 21.34 34.06 21.4 34.11L21.34 34.11C21.44 34.23 21.58 34.32 21.72 34.39C21.87 34.45 22.02 34.48 22.18 34.48C22.34 34.48 22.5 34.45 22.64 34.39C22.79 34.32 22.92 34.23 23.03 34.11Z" />
	</g>
</svg>