<svg xmlns="http://www.w3.org/2000/svg" xmlns:xlink="http://www.w3.org/1999/xlink" width="168" height="168" viewBox="0 0 168 168"><defs><style>.a{fill:#fff;}.b{fill:#1b2f67;}.c{fill:#1aa1de;}.d{filter:url(#a);}</style><filter id="a" x="0" y="0" width="168" height="168" filterUnits="userSpaceOnUse"><feOffset input="SourceAlpha"/><feGaussianBlur stdDeviation="9" result="b"/><feFlood flood-opacity="0.161"/><feComposite operator="in" in2="b"/><feComposite in="SourceGraphic"/></filter></defs><g transform="translate(27 27)"><g class="d" transform="matrix(1, 0, 0, 1, -27, -27)"><path class="a" d="M25,0H89a25,25,0,0,1,25,25V89a25,25,0,0,1-25,25H25A25,25,0,0,1,0,89V25A25,25,0,0,1,25,0Z" transform="translate(27 27)"/></g><g transform="translate(18.634 23.264)"><rect class="b" width="55.807" height="5.7" transform="translate(21.076 0)"/><rect class="b" width="30.356" height="5.7" transform="translate(38.309 14.051)"/><rect class="c" width="24.258" height="5.7" transform="translate(7.158 14.051)"/><rect class="c" width="12.46" height="5.7" transform="translate(0 0.398)"/></g><g transform="translate(18.634 71.25)"><rect class="b" width="55.807" height="5.7" transform="translate(0 14.051)"/><rect class="b" width="30.356" height="5.7" transform="translate(8.218)"/><rect class="c" width="24.258" height="5.7" transform="translate(45.467)"/><rect class="c" width="12.46" height="5.7" transform="translate(64.423 13.654)"/></g><path class="c" d="M108.815,371.032l-5.686-.4c.073-1.148,1.352-28.488-37.519-36.779-22.027-4.7-32.768-16.407-37.9-25.4a44.037,44.037,0,0,1-5.91-18.861l5.7-.166c.041,1.253,1.46,30.786,39.3,38.856,12.554,2.678,29.257,9.134,37.538,24.688A36.3,36.3,0,0,1,108.815,371.032Z" transform="translate(-8.268 -272.937)"/><path class="b" d="M21.823,371.032A36.3,36.3,0,0,1,26.3,352.963c4.571-8.585,14.793-19.837,37.537-24.688,37.843-8.07,39.262-37.6,39.3-38.856l5.7.166a44.056,44.056,0,0,1-5.911,18.861c-5.132,9-15.875,20.707-37.9,25.4-38.87,8.291-37.591,35.63-37.517,36.789Z" transform="translate(-8.267 -272.937)"/></g></svg>