<svg xmlns="http://www.w3.org/2000/svg" xmlns:xlink="http://www.w3.org/1999/xlink" width="168" height="168" viewBox="0 0 168 168"><defs><style>.a{fill:#fff;}.b{fill:none;stroke:#1b2f67;stroke-miterlimit:10;stroke-width:6.815px;}.c{fill:#1aa1de;}.d{filter:url(#a);}</style><filter id="a" x="0" y="0" width="168" height="168" filterUnits="userSpaceOnUse"><feOffset input="SourceAlpha"/><feGaussianBlur stdDeviation="9" result="b"/><feFlood flood-opacity="0.161"/><feComposite operator="in" in2="b"/><feComposite in="SourceGraphic"/></filter></defs><g transform="translate(27 27)"><g class="d" transform="matrix(1, 0, 0, 1, -27, -27)"><path class="a" d="M25,0H89a25,25,0,0,1,25,25V89a25,25,0,0,1-25,25H25A25,25,0,0,1,0,89V25A25,25,0,0,1,25,0Z" transform="translate(27 27)"/></g><g transform="translate(19.798 11.625)"><circle class="b" cx="32.861" cy="32.861" r="32.861" transform="translate(4.341 12.647)"/><circle class="c" cx="2.826" cy="2.826" r="2.826" transform="translate(6.429 9.862)"/><circle class="c" cx="2.716" cy="2.716" r="2.716" transform="translate(46.157 27.519)"/><circle class="c" cx="3.939" cy="3.939" r="3.939" transform="translate(23.291 27.917)"/><circle class="c" cx="2.032" cy="2.032" r="2.032" transform="translate(75.172 59.464)"/><circle class="c" cx="2.032" cy="2.032" r="2.032" transform="translate(54.692 47.931)"/><circle class="c" cx="1.47" cy="1.47" r="1.47" transform="translate(37.16 42.528)"/><circle class="c" cx="1.47" cy="1.47" r="1.47" transform="translate(2.562 21.452)"/><circle class="c" cx="0.968" cy="0.968" r="0.968" transform="translate(44.142)"/><circle class="c" cx="0.968" cy="0.968" r="0.968" transform="translate(60.446 84.307)"/><circle class="c" cx="0.968" cy="0.968" r="0.968" transform="translate(0 66.783)"/><circle class="c" cx="2.032" cy="2.032" r="2.032" transform="translate(16.714 48.727)"/><circle class="c" cx="2.032" cy="2.032" r="2.032" transform="translate(15.521 83.125)"/><circle class="c" cx="1.577" cy="1.577" r="1.577" transform="translate(60.259 11.262)"/><circle class="c" cx="5.434" cy="5.434" r="5.434" transform="translate(31.428 55.878)"/></g></g></svg>