<svg xmlns="http://www.w3.org/2000/svg" width="129.202" height="193.34" viewBox="0 0 129.202 193.34"><defs><style>.a{fill:#c32038;}.b{fill:#1b2f67;}.c,.j{fill:#7e7cb3;}.d{fill:#4e4e4e;}.e{fill:#7f7f7f;}.f,.g{fill:#fff;}.f{stroke-linecap:round;stroke-linejoin:round;}.h{fill:#363664;}.i,.j{stroke:none;}</style></defs><path class="a" d="M45.127,14.706V0h20.84V84.552a5.171,5.171,0,1,1-5.094-4.3c.108,0,.213.008.318.016V14.706Z" transform="translate(-23.879)"/><path class="b" d="M115.231,23.507a29.707,29.707,0,0,1,29.381,29.7v58.1H85.848V53.21A29.707,29.707,0,0,1,115.231,23.507Z" transform="translate(-15.41 4.889)"/><path class="c" d="M99.528,23.5h12.529a29.711,29.711,0,0,1,29.71,29.711v58.1H129.239v-58.1A29.711,29.711,0,0,0,99.528,23.5Z" transform="translate(-12.565 4.887)"/><rect class="d" width="17.51" height="77.137" transform="translate(70.438 193.34) rotate(-180)"/><rect class="e" width="8.755" height="77.137" transform="translate(61.683 193.34) rotate(-180)"/><g class="f" transform="translate(-27.537 4.887)"><path class="i" d="M 97.25569152832031 110.596565246582 L 28.25634384155273 110.596565246582 L 28.25634384155273 53.21127319335938 C 28.25634384155273 49.29708480834961 29.02276992797852 45.50033950805664 30.53435707092285 41.92650985717773 C 31.99450302124023 38.47426986694336 34.08499908447266 35.37367248535156 36.74773025512695 32.71085739135742 C 39.41044998168945 30.04807090759277 42.51091766357422 27.95753860473633 45.9630241394043 26.49736404418945 C 49.53665161132812 24.98577880859375 53.33314514160156 24.21933746337891 57.24706268310547 24.21933746337891 L 118.431282043457 24.21933746337891 C 117.4818344116211 24.52255439758301 116.5449829101562 24.87363243103027 115.6229705810547 25.27204513549805 C 112.036865234375 26.8216438293457 108.8190383911133 29.02071189880371 106.0589065551758 31.80813789367676 C 103.2971954345703 34.59716415405273 101.1297302246094 37.83793640136719 99.61672973632812 41.4404296875 C 98.05006408691406 45.17073822021484 97.25569152832031 49.13101959228516 97.25569152832031 53.21127319335938 L 97.25569152832031 110.596565246582 Z"/><path class="j" d="M 57.24705505371094 24.93865203857422 C 53.42993927001953 24.93865203857422 49.72771453857422 25.68596649169922 46.24324035644531 27.15985107421875 C 42.87688446044922 28.58376312255859 39.85325622558594 30.62252044677734 37.25637054443359 33.21949768066406 C 34.65945434570312 35.81648254394531 32.62074279785156 38.84022521972656 31.19684600830078 42.20672607421875 C 29.72296905517578 45.69140625 28.97565460205078 49.39386749267578 28.97565460205078 53.21126556396484 L 28.97565460205078 109.8772354125977 L 96.536376953125 109.8772354125977 L 96.536376953125 53.21126556396484 C 96.536376953125 49.03485107421875 97.349609375 44.98085021972656 98.95352935791016 41.16189575195312 C 100.5023422241211 37.47410583496094 102.7209701538086 34.15675354003906 105.5477752685547 31.30199432373047 C 108.1840972900391 28.63958740234375 111.2285308837891 26.50154113769531 114.6067047119141 24.93865203857422 L 57.24705505371094 24.93865203857422 M 57.24705505371094 23.49999237060547 L 127.0291595458984 23.49999237060547 C 127.1390686035156 23.49999237060547 127.24658203125 23.50724792480469 127.3577117919922 23.50845336914062 C 111.1008453369141 23.68601989746094 97.97502899169922 36.912109375 97.97502899169922 53.21126556396484 L 97.97502899169922 111.3158950805664 L 27.53700256347656 111.3158950805664 L 27.53700256347656 53.21126556396484 C 27.53700256347656 36.80217742919922 40.83917236328125 23.49999237060547 57.24705505371094 23.49999237060547 Z"/></g><path class="g" d="M90.153,91.127l.217-41.263H32.932l-.2,41.263Z" transform="translate(-26.457 10.371)"/><path class="h" d="M34.172,51.245S67.465,57.8,68.119,57.911c7.6,1.291,7.666,2.712,7.666,2.712,5.127-.031,5.816.178,6.861.936,3.165,2.26.155,8.911.155,8.911-.533.469-44.236,18.808-44.236,18.808H88.27l.188-38.212H34.136l.036.178" transform="translate(-26.165 10.621)"/><path class="h" d="M67.823,61.636a12.6,12.6,0,0,1-3.357.629c-.842.065-1.049.162-1,.484.043.291.222.452,1.433.452,2.793,0,7.6-1.049,9.214-.564.86.257.51,1.679.237,3.551-.108.726.383.678.606.355a10.046,10.046,0,0,0,.929-3.923c-.164-1.727-1.688-1.985-3.737-1.985H68.906c-.178,0-.284.112-.436.387a1.334,1.334,0,0,1-.647.614" transform="translate(-20.065 12.611)"/><path class="h" d="M34.153,58.381l-.134,29.381s17.168-9.38,19.244-10.575a110.247,110.247,0,0,1,15.914-7.8,71.154,71.154,0,0,1,8.563-2.453c1.086-.21,1.517-.388,1.471-.614-.173-.6-1.313-.645-3.214-.548-5.8.274-16.094,4.746-18.971,6.441l-5.994-11.3H74.344c.44-2.938-14.325-2.519-14.784-2.55H34.149l0,.016" transform="translate(-26.189 12.137)"/></svg>